<svg width="180" height="48" viewBox="0 0 180 48" fill="none" xmlns="http://www.w3.org/2000/svg">
<path d="M11.131 8.37309L11.1549 11.6398L11.1908 14.9183L15.4758 14.9537L19.7488 14.9773V13.5031V12.029H16.936H14.1233V8.72688V5.4248H9.75451H5.38574V6.89895V8.37309H8.25835H11.131Z" fill="white"/>
<path d="M22.7402 9.55356V12.3839V15.2143H24.2364H25.7325V10.9098V6.60528H22.9796H20.2267V3.83389V1.0625H18.7305H17.2344V5.30803V9.55356H19.9873H22.7402Z" fill="white"/>
<path d="M2.9923 25.591V22.7017V19.8124H5.86492H8.73753V15.5668V11.3213H7.32516C6.54716 11.3213 5.86492 11.3567 5.82901 11.4038C5.78113 11.4392 5.74522 12.6893 5.74522 14.1752V16.8641H2.87261H0V21.2275V25.591H1.49615H2.9923Z" fill="white"/>
<path d="M40.0955 19.6939V22.4063H36.6244H33.1533V23.8804V25.3546H38.1205H43.0878V22.6422V19.9297H45.3619H47.648L47.6121 18.4792L47.5762 17.0404L43.8418 17.005L40.0955 16.9814V19.6939Z" fill="white"/>
<path d="M8.73842 28.3033V25.5909H12.0898H15.4412V24.1167V22.6426H10.5937H5.74612V25.355V28.0674H3.41212H1.07812V29.5416V31.0157H4.90827H8.73842V28.3033Z" fill="white"/>
<path d="M25.9115 20.2246L28.6405 20.1892L31.3575 20.1656V15.8611V11.5566H29.8614H28.3652V14.387V17.2174H25.6961H23.015L22.9432 19.5996C22.8953 20.9204 22.8594 22.4299 22.8594 22.9606V23.9394L23.9965 23.963C24.6189 23.9748 25.2772 23.9866 25.4687 23.9866L25.7918 23.9984L25.8517 22.1115L25.9115 20.2246Z" fill="white"/>
<path d="M20.1081 45.0518V42.3394V39.627H15.8829C13.5489 39.627 11.6099 39.6623 11.574 39.7095C11.5261 39.7449 11.4902 40.4171 11.4902 41.1836V42.5752H14.303H17.1158V45.2877V48.0001H21.5444H25.973V46.5259V45.0518H23.0405H20.1081Z" fill="white"/>
<path d="M20.2267 36.4419V33.0808V29.7198H23.0394H25.8522V28.2456V26.7715H21.5433H17.2344V31.6067V36.4419H18.7305H20.2267Z" fill="white"/>
<path d="M17.4747 23.8215H18.9709H20.467V20.4015V16.9814H16.0983H11.7295V18.4556V19.9297H14.6021H17.4747V21.8756V23.8215Z" fill="white"/>
<path d="M34.7109 15.2139V19.4594H36.1472H37.5835L37.6075 16.7116L37.6434 13.9756L40.3724 13.9402L43.0894 13.9166V9.61211V5.30762H41.5932H40.0971V8.13797V10.9683H37.404H34.7109V15.2139Z" fill="white"/>
<path d="M28.4874 2.94829L28.5114 5.62533L28.5473 8.31417L32.8322 8.34954L37.1052 8.37313V6.89899V5.42485H34.2925H31.4797V2.71242V0H27.111H22.7422V1.47414V2.94829H25.6148H28.4874Z" fill="white"/>
<path d="M36.9842 30.7797V29.3056V27.8314L34.0876 27.8078L31.1791 27.7725L31.1432 25.9091L31.1073 24.0576H29.6231H28.127V27.4187V30.7797H32.5556H36.9842Z" fill="white"/>
<path d="M14.004 32.7865V28.541H12.5079H11.0117V31.3124V34.0838H8.25878H5.50586V38.3883V42.6928H7.00201H8.49816V39.8624V37.0321H11.2511H14.004V32.7865Z" fill="white"/>
<path d="M144.111 39.5295C144.877 39.7654 145.248 39.8008 146.684 39.789C148.707 39.789 149.569 39.6003 151.16 38.8455C152.693 38.1144 153.901 36.935 154.632 35.4963C155.182 34.3877 155.29 33.8806 154.991 33.6919C154.643 33.4797 154.44 33.6919 153.854 34.8123C152.824 36.7935 151.244 38.079 149.138 38.6333C148.096 38.9045 146.002 38.9163 144.948 38.6451C141.86 37.8431 139.718 35.567 138.856 32.206C138.497 30.7672 138.509 30.6965 139.119 30.5314C142.04 29.7648 153.363 26.734 153.65 26.6396C153.865 26.5689 154.201 26.3212 154.416 26.0971C154.775 25.6844 154.787 25.6372 154.715 24.8942C154.608 23.6678 154.009 22.571 152.812 21.4035C151.675 20.2949 150.43 19.5873 148.946 19.2217C147.366 18.8208 145.116 18.9623 143.5 19.5637C141.633 20.2713 139.622 21.9813 138.641 23.7031C137.276 26.1089 136.893 28.786 137.48 31.8758C138.21 35.6968 140.592 38.4446 144.111 39.5295ZM141.513 21.8752C142.686 20.8492 144.17 20.1652 145.726 19.9293C147.031 19.7406 148.072 19.8586 149.341 20.3421C150.945 20.9671 152.453 22.2762 153.099 23.6206C153.722 24.9178 153.674 25.6608 152.956 25.9438C152.776 26.0264 149.449 26.9227 145.583 27.9487L138.545 29.8002L138.509 28.9275C138.413 26.4509 139.67 23.5027 141.513 21.8752Z" fill="white"/>
<path d="M118.113 10.1047L118.555 10.4703L118.591 24.1739C118.603 33.8207 118.579 37.9365 118.484 38.1016C118.412 38.2313 118.125 38.4436 117.837 38.5615C117.167 38.8446 117.071 39.0097 117.418 39.2927C117.646 39.4696 117.909 39.505 119.214 39.505C120.949 39.505 121.404 39.3988 121.344 39.0097C121.32 38.8446 121.165 38.7148 120.842 38.5969C119.896 38.2785 119.932 38.4436 119.944 34.8585L119.956 31.6625L121.871 29.9525C122.924 29.0091 123.834 28.2425 123.882 28.2425C123.978 28.2425 132.129 37.5473 132.44 38.0073C132.619 38.2903 132.619 38.3139 132.368 38.5497C132.224 38.6795 131.997 38.821 131.877 38.8682C131.614 38.9507 131.59 39.3399 131.853 39.4342C132.093 39.5286 135.181 39.5286 135.42 39.4342C135.671 39.3399 135.659 38.9271 135.408 38.8446C135.288 38.7974 134.917 38.6441 134.582 38.4908C134.02 38.2313 133.529 37.6888 129.555 33.0541C127.125 30.212 125.043 27.7826 124.935 27.6529C124.744 27.4052 124.815 27.3345 128.262 24.2211C131.123 21.6502 131.973 20.9426 132.775 20.518C133.601 20.0699 133.756 19.9402 133.756 19.6925V19.3977L131.769 19.3623C130.178 19.3387 129.747 19.3623 129.639 19.492C129.447 19.7397 129.567 19.9638 130.046 20.2114C130.692 20.5534 130.692 20.8129 130.094 21.4143C129.807 21.6856 127.413 23.8319 124.779 26.1787L119.992 30.4361L119.932 19.3977C119.884 9.76269 119.848 8.34751 119.693 8.25316C119.597 8.1942 119.465 8.13523 119.393 8.14703C119.13 8.14703 117.586 8.86641 117.359 9.09048L117.119 9.33813L117.394 9.52682C117.55 9.63296 117.873 9.89241 118.113 10.1047Z" fill="white"/>
<path d="M25.9738 38.4459V35.6155V32.7852H24.4776H22.9814V37.0897V41.3941H25.6745H28.3676V44.1655V46.9369H29.8637H31.3599V42.6914V38.4459H28.6668H25.9738Z" fill="white"/>
<path d="M87.4947 11.6982C87.4947 11.2972 87.7102 11.026 88.5241 10.4246C88.7395 10.2594 88.8233 10.1179 88.7754 9.98821C88.6677 9.69338 86.9082 9.70517 86.5491 9.98821C86.2499 10.2359 86.5013 9.58724 80.4927 25.6731C77.9912 32.3598 75.9085 37.8082 75.8726 37.7611C75.8367 37.7139 73.6822 31.6758 71.0969 24.3523C68.5115 17.0169 66.3212 10.8255 66.2254 10.5779C66.1177 10.3184 65.9022 10.059 65.6988 9.96462C65.232 9.71696 63.6879 9.72876 63.6042 9.96462C63.4845 10.2594 63.6401 10.4717 64.1428 10.7312C64.454 10.8845 64.6574 11.0732 64.7053 11.2619C64.7532 11.4388 63.8076 16.8518 62.3833 24.6707C60.5281 34.801 59.9296 37.8436 59.7501 38.0795C59.6304 38.2446 59.2713 38.504 58.9721 38.6573C58.2898 38.9875 58.218 39.3177 58.7806 39.4357C59.2713 39.53 61.8567 39.53 62.3474 39.4357C62.9578 39.306 62.8262 38.9993 62.0003 38.6455C61.4856 38.4333 61.2462 38.2564 61.1624 38.0441C61.0667 37.7964 61.5335 34.9779 63.3169 24.9773C64.5737 17.9604 65.615 12.2053 65.6389 12.1817C65.6629 12.1581 65.7706 12.3586 65.8663 12.6417C66.1775 13.5379 74.6996 37.7728 74.951 38.4804C75.346 39.6008 76.0282 39.8013 76.4711 38.9404C76.5908 38.7045 78.8888 32.6428 81.5819 25.4962C85.3283 15.5192 86.4893 12.5473 86.5611 12.7596C86.609 12.9011 87.6503 18.5972 88.8831 25.4136C90.511 34.4472 91.0855 37.8672 91.0137 38.0913C90.9419 38.28 90.6785 38.504 90.3195 38.6809C89.1465 39.2824 89.5654 39.5064 91.8395 39.5064C92.7133 39.5064 93.5392 39.4711 93.6948 39.4357C94.1376 39.3177 94.006 38.964 93.3955 38.6691C93.0843 38.5158 92.7253 38.2446 92.6056 38.0795C92.438 37.8436 91.7797 34.6005 89.9364 24.9301C88.5959 17.866 87.4947 11.9105 87.4947 11.6982Z" fill="white"/>
<path d="M97.6442 24.0359C97.9195 24.0005 98.0632 23.8236 98.5659 22.9037C99.6072 21.005 100.696 20.2031 102.671 19.9318C106.035 19.4483 108.668 21.0758 109.757 24.2953C110.068 25.2152 110.427 26.9841 110.535 28.1281C110.571 28.5762 110.631 29.1305 110.667 29.3428L110.727 29.7319L110.056 29.1895C108.56 27.9984 107.088 27.5384 104.73 27.5502C101.115 27.5738 98.6257 28.8003 97.4527 31.1235C97.0099 31.9962 97.0099 32.0198 97.0099 33.4822C97.0099 34.6143 97.0577 35.1096 97.2253 35.5813C97.8956 37.48 99.5833 38.907 101.917 39.5438C103.138 39.874 105.376 39.9448 106.657 39.6972C108.512 39.3316 110.092 38.3527 110.966 37.0083L111.373 36.3833L111.445 37.2678C111.529 38.2702 111.744 38.8598 112.163 39.2254C112.713 39.7089 113.671 39.874 114.569 39.6264C115.431 39.3905 115.215 38.8952 114.126 38.624C113.18 38.3881 112.69 37.8928 112.582 37.0791C112.546 36.7607 112.342 34.5671 112.151 32.1967C111.947 29.8263 111.732 27.4912 111.66 27.0077C111.265 24.2953 110.523 22.5145 109.207 21.1112C108.405 20.262 107.662 19.7785 106.513 19.3894C105.364 18.9884 102.994 18.8823 101.678 19.1771C99.3199 19.696 97.3211 21.3352 97.0099 23.0334C96.8902 23.6231 97.1894 24.0948 97.6442 24.0359ZM110.942 34.6261C110.559 36.6781 108.931 38.2702 106.645 38.8127C105.711 39.0367 103.533 39.0014 102.576 38.7537C100.218 38.1287 98.6377 36.4776 98.2547 34.2723C97.7161 31.1353 100.026 28.7177 103.832 28.4347C105.089 28.3404 106.513 28.4819 107.447 28.7885C108.871 29.2484 110.14 30.2626 110.607 31.3122C110.93 32.0198 111.098 33.7652 110.942 34.6261Z" fill="white"/>
<path d="M169.22 20.2602L171.147 20.2838L171.195 28.1616C171.243 36.7471 171.219 36.5348 171.949 37.8556C172.536 38.9052 173.41 39.5066 174.75 39.7425C176.163 39.9902 177.659 39.6246 178.628 38.7873C179.61 37.9264 180.34 35.9451 179.837 35.4616C179.406 35.037 179.011 35.3673 178.891 36.2517C178.76 37.3249 177.97 38.2684 176.941 38.634C176.689 38.7165 176.115 38.7873 175.66 38.7991C174.247 38.7991 173.374 38.2094 172.823 36.8296L172.536 36.1456L172.5 28.2206L172.464 20.2838L175.959 20.2602C179.131 20.2249 179.466 20.2013 179.586 20.0244C179.681 19.8711 179.681 19.7531 179.586 19.6116C179.466 19.4229 179.131 19.3993 175.959 19.364L172.476 19.3404L172.464 18.5384C172.452 18.1021 172.416 17.1115 172.368 16.3331C172.308 15.0359 172.273 14.9179 172.057 14.8826C171.686 14.8354 171.518 15.083 171.518 15.7317C171.506 17.4299 171.1 18.8097 170.525 19.1281C170.369 19.2224 169.663 19.305 168.778 19.3404C167.533 19.3875 167.269 19.4347 167.162 19.5998C167.066 19.7531 167.066 19.8711 167.162 20.0126C167.281 20.2013 167.545 20.2249 169.22 20.2602Z" fill="white"/>
<path d="M37.5228 39.5635L37.4869 36.2261L37.463 32.9004H33.2139H28.9648V34.3745V35.8487H31.7178H34.4707L34.4946 39.1743L34.5305 42.5118L38.9352 42.5472L43.3279 42.5708V41.0966V39.6225L40.4314 39.5989L37.5228 39.5635Z" fill="white"/>
<path d="M45.7236 22.4072L45.6997 25.2612L45.6638 28.1269L42.9468 28.1623L40.2178 28.1859V32.4314V36.6887L41.69 36.6533L43.1502 36.618L43.1861 33.8702L43.2101 31.1342H45.9032H48.5962V26.7707V22.4072H47.1599H45.7236Z" fill="white"/>
<path d="M160.172 10.4839C160.387 10.5546 160.674 10.7315 160.83 10.873L161.105 11.1207V24.6592V38.1978L160.806 38.4218C160.65 38.5515 160.351 38.7167 160.148 38.7992C159.872 38.9053 159.789 39.0115 159.813 39.2002C159.848 39.436 159.92 39.4478 161.692 39.4832C163.463 39.5068 163.858 39.4478 163.858 39.1412C163.858 39.0822 163.595 38.9053 163.26 38.7402C162.937 38.5751 162.613 38.3393 162.542 38.2213C162.458 38.068 162.422 33.5984 162.422 24.5531V11.1207L162.697 10.8848C162.841 10.7433 163.164 10.5546 163.415 10.4485C163.738 10.3188 163.87 10.2008 163.834 10.0593C163.798 9.87063 163.607 9.84704 161.871 9.81166C160.818 9.79987 159.92 9.82345 159.872 9.85883C159.669 10.0593 159.813 10.3659 160.172 10.4839Z" fill="white"/>
</svg>
